PathFileType	4	(X/Y/Z)	C:\Users\italobelli\Desktop\GitHub\PTbot_officialCBL\Personal_Results\FLX02_noisy2.trc
DataRate	CameraRate	NumFrames	NumMarkers	Units	OrigDataRate	OrigDataStartFrame	OrigNumFrames
106.125000	106.125000	34	9	m	106.125000	1	850
Frame#	Time		gu		centelbow		EpL		centpxt8		centijc7		ij		ts		aa		ai
			X1	Y1	Z1	X2	Y2	Z2	X3	Y3	Z3	X4	Y4	Z4	X5	Y5	Z5	X6	Y6	Z6	X7	Y7	Z7	X8	Y8	Z8	X9	Y9	Z9

1	0	-0.07018	-0.0136	0.16989	-0.11405	-0.25175	0.1833	-0.094874	-0.24975	0.20913	-0.046816	-0.15316	-0.008669	-0.046816	0.031938	-0.008669	0	0	0	-0.13294	0.024819	0.054576	-0.10425	0.022136	0.17031	-0.14479	-0.087931	0.060272
2	0.0094229	-0.070204	-0.013561	0.16989	-0.11463	-0.25152	0.18319	-0.095458	-0.24956	0.20903	-0.046816	-0.15316	-0.008669	-0.046816	0.031938	-0.008669	0	0	0	-0.1329	0.024825	0.054549	-0.10426	0.022157	0.1703	-0.14475	-0.087925	0.060253
3	0.018846	-0.070228	-0.013524	0.16989	-0.1152	-0.25129	0.18309	-0.096026	-0.24937	0.20893	-0.046816	-0.15316	-0.008669	-0.046816	0.031938	-0.008669	0	0	0	-0.13287	0.02483	0.054523	-0.10428	0.022176	0.17028	-0.14471	-0.087919	0.060234
4	0.028269	-0.070252	-0.01349	0.16989	-0.11575	-0.25106	0.18298	-0.096578	-0.24919	0.20884	-0.046816	-0.15316	-0.008669	-0.046816	0.031938	-0.008669	0	0	0	-0.13283	0.024835	0.054497	-0.10429	0.022194	0.17027	-0.14468	-0.087914	0.060216
5	0.037691	-0.070275	-0.013458	0.16989	-0.11628	-0.25085	0.18288	-0.097113	-0.24901	0.20875	-0.046816	-0.15316	-0.008669	-0.046816	0.031938	-0.008669	0	0	0	-0.13279	0.02484	0.054472	-0.10431	0.022211	0.17026	-0.14464	-0.087909	0.060199
6	0.047114	-0.070298	-0.013428	0.16989	-0.1168	-0.25064	0.18279	-0.097632	-0.24884	0.20866	-0.046816	-0.15316	-0.008669	-0.046816	0.031938	-0.008669	0	0	0	-0.13276	0.024843	0.054448	-0.10432	0.022227	0.17025	-0.14461	-0.087905	0.060182
7	0.056537	-0.07032	-0.013401	0.16988	-0.1173	-0.25043	0.18269	-0.098135	-0.24867	0.20857	-0.046816	-0.15316	-0.008669	-0.046816	0.031938	-0.008669	0	0	0	-0.13273	0.024847	0.054424	-0.10433	0.022242	0.17023	-0.14458	-0.087901	0.060165
8	0.06596	-0.070342	-0.013376	0.16988	-0.11778	-0.25024	0.1826	-0.098621	-0.24851	0.20848	-0.046816	-0.15316	-0.008669	-0.046816	0.031938	-0.008669	0	0	0	-0.1327	0.02485	0.054401	-0.10434	0.022255	0.17022	-0.14455	-0.087898	0.060149
9	0.075383	-0.070363	-0.013353	0.16988	-0.11825	-0.25004	0.18251	-0.099091	-0.24835	0.2084	-0.046816	-0.15316	-0.008669	-0.046816	0.031938	-0.008669	0	0	0	-0.13266	0.024853	0.054378	-0.10436	0.022268	0.17021	-0.14452	-0.087895	0.060134
10	0.084806	-0.070384	-0.013332	0.16987	-0.11869	-0.24986	0.18242	-0.099545	-0.24819	0.20832	-0.046816	-0.15316	-0.008669	-0.046816	0.031938	-0.008669	0	0	0	-0.13264	0.024855	0.054356	-0.10437	0.022279	0.17019	-0.1445	-0.087892	0.060118
11	0.094229	-0.070404	-0.013314	0.16987	-0.11913	-0.24967	0.18233	-0.099983	-0.24804	0.20824	-0.046816	-0.15316	-0.008669	-0.046816	0.031938	-0.008669	0	0	0	-0.13261	0.024857	0.054334	-0.10438	0.02229	0.17018	-0.14447	-0.08789	0.060104
12	0.10365	-0.070424	-0.013297	0.16987	-0.11954	-0.2495	0.18225	-0.1004	-0.24789	0.20816	-0.046816	-0.15316	-0.008669	-0.046816	0.031938	-0.008669	0	0	0	-0.13258	0.024858	0.054314	-0.10439	0.022299	0.17017	-0.14445	-0.087888	0.060089
13	0.11307	-0.070444	-0.013283	0.16986	-0.11994	-0.24933	0.18217	-0.10081	-0.24775	0.20809	-0.046816	-0.15316	-0.008669	-0.046816	0.031938	-0.008669	0	0	0	-0.13255	0.024859	0.054294	-0.1044	0.022307	0.17016	-0.14443	-0.087886	0.060075
14	0.1225	-0.070463	-0.01327	0.16986	-0.12032	-0.24916	0.18209	-0.1012	-0.24761	0.20802	-0.046816	-0.15316	-0.008669	-0.046816	0.031938	-0.008669	0	0	0	-0.13253	0.02486	0.054274	-0.10441	0.022315	0.17014	-0.1444	-0.087885	0.060061
15	0.13192	-0.070482	-0.01326	0.16985	-0.12069	-0.249	0.18202	-0.10157	-0.24747	0.20795	-0.046816	-0.15316	-0.008669	-0.046816	0.031938	-0.008669	0	0	0	-0.1325	0.02486	0.054255	-0.10442	0.022321	0.17013	-0.14439	-0.087884	0.060048
16	0.14134	-0.0705	-0.013252	0.16984	-0.12104	-0.24885	0.18195	-0.10193	-0.24734	0.20788	-0.046816	-0.15316	-0.008669	-0.046816	0.031938	-0.008669	0	0	0	-0.13248	0.02486	0.054237	-0.10443	0.022326	0.17012	-0.14437	-0.087884	0.060035
17	0.15077	-0.070518	-0.013245	0.16984	-0.12137	-0.2487	0.18188	-0.10227	-0.24721	0.20782	-0.046816	-0.15316	-0.008669	-0.046816	0.031938	-0.008669	0	0	0	-0.13246	0.02486	0.054219	-0.10444	0.022331	0.17011	-0.14435	-0.087883	0.060023
18	0.16019	-0.070535	-0.01324	0.16983	-0.12169	-0.24855	0.18181	-0.10259	-0.24709	0.20776	-0.046816	-0.15316	-0.008669	-0.046816	0.031938	-0.008669	0	0	0	-0.13244	0.024859	0.054202	-0.10445	0.022334	0.17009	-0.14434	-0.087883	0.06001
19	0.16961	-0.070552	-0.013237	0.16982	-0.12199	-0.24842	0.18175	-0.1029	-0.24696	0.2077	-0.046816	-0.15316	-0.008669	-0.046816	0.031938	-0.008669	0	0	0	-0.13242	0.024859	0.054186	-0.10446	0.022337	0.17008	-0.14432	-0.087884	0.059998
20	0.17903	-0.070568	-0.013236	0.16981	-0.12227	-0.24828	0.18169	-0.10319	-0.24685	0.20765	-0.046816	-0.15316	-0.008669	-0.046816	0.031938	-0.008669	0	0	0	-0.1324	0.024857	0.05417	-0.10447	0.022338	0.17007	-0.14431	-0.087884	0.059987
21	0.18846	-0.070584	-0.013237	0.16981	-0.12254	-0.24815	0.18163	-0.10347	-0.24673	0.20759	-0.046816	-0.15316	-0.008669	-0.046816	0.031938	-0.008669	0	0	0	-0.13239	0.024856	0.054155	-0.10448	0.022339	0.17006	-0.1443	-0.087885	0.059975
22	0.19788	-0.0706	-0.013239	0.1698	-0.12279	-0.24803	0.18157	-0.10373	-0.24662	0.20754	-0.046816	-0.15316	-0.008669	-0.046816	0.031938	-0.008669	0	0	0	-0.13237	0.024854	0.054141	-0.10449	0.022339	0.17005	-0.1443	-0.087886	0.059964
23	0.2073	-0.070615	-0.013243	0.16979	-0.12303	-0.24791	0.18152	-0.10397	-0.24651	0.20749	-0.046816	-0.15316	-0.008669	-0.046816	0.031938	-0.008669	0	0	0	-0.13236	0.024852	0.054127	-0.1045	0.022338	0.17004	-0.14429	-0.087887	0.059953
24	0.21673	-0.070629	-0.013249	0.16978	-0.12325	-0.2478	0.18148	-0.1042	-0.2464	0.20745	-0.046816	-0.15316	-0.008669	-0.046816	0.031938	-0.008669	0	0	0	-0.13235	0.02485	0.054114	-0.1045	0.022336	0.17002	-0.14428	-0.087888	0.059943
25	0.22615	-0.070643	-0.013256	0.16977	-0.12346	-0.24769	0.18143	-0.10441	-0.2463	0.20741	-0.046816	-0.15316	-0.008669	-0.046816	0.031938	-0.008669	0	0	0	-0.13234	0.024848	0.054102	-0.10451	0.022333	0.17001	-0.14428	-0.08789	0.059932
26	0.23557	-0.070657	-0.013265	0.16976	-0.12364	-0.24758	0.18139	-0.10461	-0.2462	0.20737	-0.046816	-0.15316	-0.008669	-0.046816	0.031938	-0.008669	0	0	0	-0.13233	0.024845	0.05409	-0.10452	0.02233	0.17	-0.14428	-0.087892	0.059922
27	0.24499	-0.07067	-0.013275	0.16975	-0.12382	-0.24748	0.18135	-0.10479	-0.24611	0.20733	-0.046816	-0.15316	-0.008669	-0.046816	0.031938	-0.008669	0	0	0	-0.13232	0.024843	0.054079	-0.10452	0.022325	0.16999	-0.14428	-0.087894	0.059912
28	0.25442	-0.070682	-0.013287	0.16974	-0.12397	-0.24739	0.18131	-0.10495	-0.24601	0.2073	-0.046816	-0.15316	-0.008669	-0.046816	0.031938	-0.008669	0	0	0	-0.13231	0.02484	0.054068	-0.10453	0.02232	0.16998	-0.14428	-0.087896	0.059902
29	0.26384	-0.070694	-0.0133	0.16973	-0.12412	-0.24729	0.18128	-0.1051	-0.24592	0.20727	-0.046816	-0.15316	-0.008669	-0.046816	0.031938	-0.008669	0	0	0	-0.13231	0.024837	0.054059	-0.10454	0.022315	0.16997	-0.14428	-0.087898	0.059893
30	0.27326	-0.070706	-0.013315	0.16972	-0.12424	-0.24721	0.18125	-0.10523	-0.24583	0.20724	-0.046816	-0.15316	-0.008669	-0.046816	0.031938	-0.008669	0	0	0	-0.13231	0.024834	0.05405	-0.10454	0.022308	0.16997	-0.14429	-0.087901	0.059883
31	0.28269	-0.070717	-0.013331	0.16971	-0.12435	-0.24713	0.18123	-0.10535	-0.24575	0.20722	-0.046816	-0.15316	-0.008669	-0.046816	0.031938	-0.008669	0	0	0	-0.1323	0.02483	0.054041	-0.10455	0.022301	0.16996	-0.14429	-0.087903	0.059874
32	0.29211	-0.070728	-0.013348	0.1697	-0.12445	-0.24705	0.1812	-0.10545	-0.24566	0.20719	-0.046816	-0.15316	-0.008669	-0.046816	0.031938	-0.008669	0	0	0	-0.1323	0.024827	0.054034	-0.10455	0.022293	0.16995	-0.1443	-0.087906	0.059865
33	0.30153	-0.070738	-0.013366	0.16969	-0.12452	-0.24697	0.18118	-0.10553	-0.24558	0.20718	-0.046816	-0.15316	-0.008669	-0.046816	0.031938	-0.008669	0	0	0	-0.13231	0.024823	0.054027	-0.10456	0.022284	0.16994	-0.14431	-0.087909	0.059856
34	0.31095	-0.070747	-0.013386	0.16968	-0.12459	-0.2469	0.18117	-0.1056	-0.2455	0.20716	-0.046816	-0.15316	-0.008669	-0.046816	0.031938	-0.008669	0	0	0	-0.13231	0.02482	0.05402	-0.10456	0.022275	0.16993	-0.14432	-0.087912	0.059847
